<svg width="358" height="400" viewBox="0 0 358 400" fill="none" xmlns="http://www.w3.org/2000/svg">
<path d="M241.248 175.784C241.248 200.116 234.177 222.081 222.82 237.926C211.462 253.773 195.904 263.402 178.874 263.402C161.843 263.402 146.286 253.773 134.927 237.926C123.571 222.081 116.5 200.116 116.5 175.784C116.5 151.453 123.571 129.487 134.927 113.642C146.286 97.7951 161.843 88.1666 178.874 88.1666C195.904 88.1666 211.462 97.7951 222.82 113.642C234.177 129.487 241.248 151.453 241.248 175.784Z" stroke="#868686" stroke-width="3"/>
<path d="M264.145 175.784C264.145 208.988 254.506 238.986 238.996 260.645C223.484 282.306 202.19 295.53 178.823 295.53C155.456 295.53 134.161 282.306 118.649 260.645C103.14 238.986 93.5 208.988 93.5 175.784C93.5 142.581 103.14 112.583 118.649 90.9238C134.161 69.2623 155.456 56.0385 178.823 56.0385C202.19 56.0385 223.484 69.2623 238.996 90.9238C254.506 112.583 264.145 142.581 264.145 175.784Z" stroke="#868686" stroke-width="3"/>
<line x1="111.941" y1="288.453" x2="18.6164" y2="330.526" stroke="#868686" stroke-width="3"/>
<line x1="247.48" y1="288.411" x2="341.242" y2="329.5" stroke="#868686" stroke-width="3"/>
<rect x="1.5" y="1.5" width="355" height="397" stroke="#868686" stroke-width="3"/>
</svg>
